<svg width="19" height="23" viewBox="0 0 19 23" fill="none" xmlns="http://www.w3.org/2000/svg">
<path d="M9.50006 0C4.25125 0 0 0.593771 0 4.75V16.625C0 17.676 0.463127 18.6082 1.18749 19.2613V21.3751C1.18749 22.0282 1.72186 22.5626 2.37497 22.5626H3.56251C4.22158 22.5626 4.75 22.0282 4.75 21.3751V20.1876H14.2501V21.3751C14.2501 22.0282 14.7785 22.5626 15.4375 22.5626H16.625C17.2781 22.5626 17.8125 22.0282 17.8125 21.3751V19.2613C18.5369 18.6082 19 17.676 19 16.6251V4.75C19.0001 0.593771 14.7488 0 9.50006 0ZM4.15628 17.8126C3.17064 17.8126 2.37503 17.017 2.37503 16.0313C2.37503 15.0457 3.17064 14.2501 4.15628 14.2501C5.14193 14.2501 5.93754 15.0457 5.93754 16.0313C5.93754 17.017 5.14188 17.8126 4.15628 17.8126ZM14.8438 17.8126C13.8582 17.8126 13.0626 17.017 13.0626 16.0313C13.0626 15.0457 13.8582 14.2501 14.8438 14.2501C15.8295 14.2501 16.6251 15.0457 16.6251 16.0313C16.6251 17.017 15.8294 17.8126 14.8438 17.8126ZM16.6251 10.6875H2.37503V4.75H16.6251V10.6875Z" fill="#F53838"/>
</svg>
