<svg width="23" height="23" viewBox="0 0 23 23" fill="none" xmlns="http://www.w3.org/2000/svg">
<path d="M10.1523 17.5195H12.8477V23H10.1523V17.5195Z" fill="#F53838"/>
<path d="M5.43652 23H8.80463V16.1719H14.1953V23H17.5794V0H5.43652V23ZM14.8691 2.69531H16.2167V4.04297H14.8691V2.69531ZM14.8691 5.39062H16.2167V6.73828H14.8691V5.39062ZM14.8691 8.08594H16.2167V9.43359H14.8691V8.08594ZM14.8691 10.7812H16.2167V12.1289H14.8691V10.7812ZM14.8691 13.4766H16.2167V14.8242H14.8691V13.4766ZM12.1738 2.69531H13.5214V4.04297H12.1738V2.69531ZM12.1738 5.39062H13.5214V6.73828H12.1738V5.39062ZM12.1738 8.08594H13.5214V9.43359H12.1738V8.08594ZM12.1738 10.7812H13.5214V12.1289H12.1738V10.7812ZM12.1738 13.4766H13.5214V14.8242H12.1738V13.4766ZM9.47846 2.69531H10.8261V4.04297H9.47846V2.69531ZM9.47846 5.39062H10.8261V6.73828H9.47846V5.39062ZM9.47846 8.08594H10.8261V9.43359H9.47846V8.08594ZM9.47846 10.7812H10.8261V12.1289H9.47846V10.7812ZM9.47846 13.4766H10.8261V14.8242H9.47846V13.4766ZM6.78315 2.69531H8.1308V4.04297H6.78315V2.69531ZM6.78315 5.39062H8.1308V6.73828H6.78315V5.39062ZM6.78315 8.08594H8.1308V9.43359H6.78315V8.08594ZM6.78315 10.7812H8.1308V12.1289H6.78315V10.7812ZM6.78315 13.4766H8.1308V14.8242H6.78315V13.4766Z" fill="#F53838"/>
<path d="M18.896 5.39062H23.0002V23H18.896V5.39062Z" fill="#F53838"/>
<path d="M0 5.39062H4.08771V23H0V5.39062Z" fill="#F53838"/>
</svg>
