<svg width="72" height="19" viewBox="0 0 72 19" fill="none" xmlns="http://www.w3.org/2000/svg">
<path d="M5.775 18V3.075H0.675V0.499999H14.1V3.075H8.975V18H5.775ZM15.4248 18V5.6H18.2748L18.5748 7.925C19.0248 7.125 19.6331 6.49167 20.3998 6.025C21.1831 5.54167 22.0998 5.3 23.1498 5.3V8.675H22.2498C21.5498 8.675 20.9248 8.78333 20.3748 9C19.8248 9.21667 19.3915 9.59167 19.0748 10.125C18.7748 10.6583 18.6248 11.4 18.6248 12.35V18H15.4248ZM29.8619 18.3C28.7952 18.3 27.9202 18.1333 27.2369 17.8C26.5536 17.45 26.0452 16.9917 25.7119 16.425C25.3786 15.8583 25.2119 15.2333 25.2119 14.55C25.2119 13.4 25.6619 12.4667 26.5619 11.75C27.4619 11.0333 28.8119 10.675 30.6119 10.675H33.7619V10.375C33.7619 9.525 33.5202 8.9 33.0369 8.5C32.5536 8.1 31.9536 7.9 31.2369 7.9C30.5869 7.9 30.0202 8.05833 29.5369 8.375C29.0536 8.675 28.7536 9.125 28.6369 9.725H25.5119C25.5952 8.825 25.8952 8.04167 26.4119 7.375C26.9452 6.70833 27.6286 6.2 28.4619 5.85C29.2952 5.48333 30.2286 5.3 31.2619 5.3C33.0286 5.3 34.4202 5.74167 35.4369 6.625C36.4536 7.50833 36.9619 8.75833 36.9619 10.375V18H34.2369L33.9369 16C33.5702 16.6667 33.0536 17.2167 32.3869 17.65C31.7369 18.0833 30.8952 18.3 29.8619 18.3ZM30.5869 15.8C31.5036 15.8 32.2119 15.5 32.7119 14.9C33.2286 14.3 33.5536 13.5583 33.6869 12.675H30.9619C30.1119 12.675 29.5036 12.8333 29.1369 13.15C28.7702 13.45 28.5869 13.825 28.5869 14.275C28.5869 14.7583 28.7702 15.1333 29.1369 15.4C29.5036 15.6667 29.9869 15.8 30.5869 15.8ZM43.2494 18L38.6994 5.6H42.0494L45.1994 14.975L48.3494 5.6H51.6994L47.1244 18H43.2494ZM59.3824 18.3C58.1324 18.3 57.0241 18.0333 56.0574 17.5C55.0908 16.9667 54.3324 16.2167 53.7824 15.25C53.2324 14.2833 52.9574 13.1667 52.9574 11.9C52.9574 10.6167 53.2241 9.475 53.7574 8.475C54.3074 7.475 55.0574 6.7 56.0074 6.15C56.9741 5.58333 58.1074 5.3 59.4074 5.3C60.6241 5.3 61.6991 5.56667 62.6324 6.1C63.5658 6.63333 64.2908 7.36667 64.8074 8.3C65.3408 9.21667 65.6074 10.2417 65.6074 11.375C65.6074 11.5583 65.5991 11.75 65.5824 11.95C65.5824 12.15 65.5741 12.3583 65.5574 12.575H56.1324C56.1991 13.5417 56.5324 14.3 57.1324 14.85C57.7491 15.4 58.4908 15.675 59.3574 15.675C60.0074 15.675 60.5491 15.5333 60.9824 15.25C61.4324 14.95 61.7658 14.5667 61.9824 14.1H65.2324C64.9991 14.8833 64.6074 15.6 64.0574 16.25C63.5241 16.8833 62.8574 17.3833 62.0574 17.75C61.2741 18.1167 60.3824 18.3 59.3824 18.3ZM59.4074 7.9C58.6241 7.9 57.9324 8.125 57.3324 8.575C56.7324 9.00833 56.3491 9.675 56.1824 10.575H62.3574C62.3074 9.75833 62.0074 9.10833 61.4574 8.625C60.9074 8.14167 60.2241 7.9 59.4074 7.9ZM68.5488 18V-7.15256e-07H71.7488V18H68.5488Z" fill="white"/>
</svg>
