<svg width="23" height="23" viewBox="0 0 23 23" fill="none" xmlns="http://www.w3.org/2000/svg">
<path d="M8.85028 23.0001C10.3519 23.0001 11.5692 21.7828 11.5692 20.2812C11.5692 18.7796 10.3519 17.5623 8.85028 17.5623C7.34866 17.5623 6.13135 18.7796 6.13135 20.2812C6.13135 21.7828 7.34866 23.0001 8.85028 23.0001Z" fill="#F53838"/>
<path d="M16.7849 17.5623C15.2832 17.5623 14.0659 18.7796 14.0659 20.2812C14.0659 21.7828 15.2832 23.0001 16.7849 23.0001C18.2865 23.0001 19.5038 21.7828 19.5038 20.2812C19.5038 18.7796 18.2865 17.5623 16.7849 17.5623Z" fill="#F53838"/>
<path d="M21.4185 14.7877H7.24124L6.9638 13.1786H18.6164C18.9592 13.1796 19.2675 12.9703 19.3932 12.6514L22.1676 5.6599C22.3362 5.23225 22.1261 4.74889 21.6985 4.58037C21.6005 4.54173 21.4961 4.52206 21.3908 4.52239H5.5211L4.85524 0.693688C4.78685 0.28885 4.43344 -0.00566134 4.02291 8.25784e-05H0.832326C0.37265 8.25784e-05 0 0.372733 0 0.832409C0 1.29209 0.37265 1.66474 0.832326 1.66474H3.32931L5.71531 15.7588C5.78369 16.1636 6.13711 16.4581 6.54763 16.4524H21.4185C21.8782 16.4524 22.2509 16.0797 22.2509 15.6201C22.2509 15.1604 21.8782 14.7877 21.4185 14.7877Z" fill="#F53838"/>
</svg>
