<svg width="29" height="19" viewBox="0 0 29 19" fill="none" xmlns="http://www.w3.org/2000/svg">
<path d="M28 16.1477H1C0.447715 16.1477 0 16.5608 0 17.0704V17.5318C0 18.0414 0.447715 18.4545 1 18.4545H28C28.5523 18.4545 29 18.0414 29 17.5318V17.0704C29 16.5608 28.5523 16.1477 28 16.1477Z" fill="#F53838"/>
<path d="M7 11.0729C7.27614 11.0729 7.5 10.8663 7.5 10.6115V3.22967C7.5 2.97487 7.27614 2.76831 7 2.76831H3.5C3.22386 2.76831 3 2.97487 3 3.22967V10.6115C3 10.8663 3.22386 11.0729 3.5 11.0729H7ZM4.5 3.69104H6C6.27614 3.69104 6.5 3.8976 6.5 4.1524C6.5 4.40721 6.27614 4.61377 6 4.61377H4.5C4.22386 4.61377 4 4.40721 4 4.1524C4 3.8976 4.22386 3.69104 4.5 3.69104ZM4.5 5.53649H6C6.27614 5.53649 6.5 5.74305 6.5 5.99786C6.5 6.25266 6.27614 6.45922 6 6.45922H4.5C4.22386 6.45922 4 6.25266 4 5.99786C4 5.74305 4.22386 5.53649 4.5 5.53649Z" fill="#F53838"/>
<path d="M15.0005 2.76831H11.5005C11.2243 2.76831 11.0005 2.97487 11.0005 3.22967V6.45922C11.0005 6.71402 11.2243 6.92058 11.5005 6.92058H15.0005C15.2766 6.92058 15.5005 6.71402 15.5005 6.45922V3.22967C15.5005 2.97487 15.2766 2.76831 15.0005 2.76831Z" fill="#F53838"/>
<path d="M19 3.22967V6.45922C19 6.71402 19.2239 6.92058 19.5 6.92058H27.035L24.035 2.76831H19.5C19.2239 2.76831 19 2.97487 19 3.22967Z" fill="#F53838"/>
<path d="M18.4875 13.8409H19.5125C19.6475 15.1428 20.8327 16.1367 22.25 16.1367C23.6673 16.1367 24.8525 15.1428 24.9875 13.8409H25.495C26.5137 13.8417 27.4822 13.433 28.1478 12.7214C28.8134 12.0098 29.1099 11.0659 28.96 10.1362C28.9242 10.1456 28.8872 10.1503 28.85 10.15H22.5C22.2239 10.15 22 9.94344 22 9.68864C22 9.43383 22.2239 9.22727 22.5 9.22727H28.655C28.5823 9.0866 28.4988 8.95091 28.405 8.82127L27.7 7.84318H19.5C18.6726 7.8409 18.0025 7.22256 18 6.45909V3.22955C18.0025 2.46608 18.6726 1.84773 19.5 1.84545H23.37L23.075 1.43945C22.4251 0.540289 21.3313 0.000170063 20.16 0H1C0.448399 0.0015201 0.0016474 0.41375 0 0.922727V9.22727H2V3.22955C2.00247 2.46608 2.6726 1.84773 3.5 1.84545H7C7.8274 1.84773 8.49753 2.46608 8.5 3.22955V9.22727H20C20.2761 9.22727 20.5 9.43383 20.5 9.68864C20.5 9.94344 20.2761 10.15 20 10.15H8.5V10.6114C8.49753 11.3748 7.8274 11.9932 7 11.9955H3.5C2.6726 11.9932 2.00247 11.3748 2 10.6114V10.15H0V13.8409H13.0125C13.1475 15.1428 14.3327 16.1367 15.75 16.1367C17.1673 16.1367 18.3525 15.1428 18.4875 13.8409V13.8409ZM16.5 6.45909C16.4975 7.22256 15.8274 7.8409 15 7.84318H11.5C10.6726 7.8409 10.0025 7.22256 10 6.45909V3.22955C10.0025 2.46608 10.6726 1.84773 11.5 1.84545H15C15.8274 1.84773 16.4975 2.46608 16.5 3.22955V6.45909ZM22.25 15.225C21.3805 15.2238 20.6432 14.6348 20.5175 13.8409H23.9825C23.8568 14.6348 23.1195 15.2238 22.25 15.225ZM15.75 15.225C14.8805 15.2238 14.1432 14.6348 14.0175 13.8409H17.4825C17.3568 14.6348 16.6195 15.2238 15.75 15.225V15.225Z" fill="#F53838"/>
</svg>
